<svg xmlns="http://www.w3.org/2000/svg" viewBox="0 0 1000 320" width="1000" height="320"><defs><linearGradient id="b" x1="0" y1="0" x2="0" y2="1"><stop offset="0" stop-color="#58a6ff"/><stop offset="1" stop-color="#1f6feb"/></linearGradient></defs><style>.t{fill:#8b949e;font-size:12px}.x{fill:#8b949e;font-size:10px}.v{fill:#c9d1d9;font-size:10px;font-weight:600}</style><rect width="100%" height="100%" rx="8" fill="#0d1117" stroke="#30363d"/><g font-family="-apple-system,Segoe UI,Helvetica,Arial,sans-serif"><text x="50" y="32" fill="#c9d1d9" font-size="16" font-weight="600">Daily contributions · last 30 days</text><text x="980" y="32" text-anchor="end" class="t">314 contributions  ·  27/30 active days  ·  peak 39/day</text><line x1="50" x2="980" y1="280.0" y2="280.0" stroke="#30363d" stroke-dasharray="3 4"/><text x="40" y="284.0" text-anchor="end" class="t">0</text><line x1="50" x2="980" y1="226.0" y2="226.0" stroke="#30363d" stroke-dasharray="3 4"/><text x="40" y="230.0" text-anchor="end" class="t">10</text><line x1="50" x2="980" y1="172.0" y2="172.0" stroke="#30363d" stroke-dasharray="3 4"/><text x="40" y="176.0" text-anchor="end" class="t">20</text><line x1="50" x2="980" y1="118.0" y2="118.0" stroke="#30363d" stroke-dasharray="3 4"/><text x="40" y="122.0" text-anchor="end" class="t">30</text><line x1="50" x2="980" y1="64.0" y2="64.0" stroke="#30363d" stroke-dasharray="3 4"/><text x="40" y="68.0" text-anchor="end" class="t">40</text><rect x="55.9" y="253.0" width="19.2" height="27.0" rx="3" fill="url(#b)"><title>7/9: 5</title></rect><text x="65.5" y="247.0" text-anchor="middle" class="v">5</text><rect x="86.9" y="204.4" width="19.2" height="75.6" rx="3" fill="url(#b)"><title>8/9: 14</title></rect><text x="96.5" y="198.4" text-anchor="middle" class="v">14</text><rect x="117.9" y="274.6" width="19.2" height="5.4" rx="3" fill="url(#b)"><title>9/9: 1</title></rect><text x="127.5" y="268.6" text-anchor="middle" class="v">1</text><rect x="148.9" y="215.2" width="19.2" height="64.8" rx="3" fill="url(#b)"><title>10/9: 12</title></rect><text x="158.5" y="209.2" text-anchor="middle" class="v">12</text><rect x="179.9" y="161.2" width="19.2" height="118.8" rx="3" fill="url(#b)"><title>11/9: 22</title></rect><text x="189.5" y="155.2" text-anchor="middle" class="v">22</text><rect x="210.9" y="182.8" width="19.2" height="97.2" rx="3" fill="url(#b)"><title>12/9: 18</title></rect><text x="220.5" y="176.8" text-anchor="middle" class="v">18</text><rect x="241.9" y="269.2" width="19.2" height="10.8" rx="3" fill="url(#b)"><title>13/9: 2</title></rect><text x="251.5" y="263.2" text-anchor="middle" class="v">2</text><rect x="272.9" y="274.6" width="19.2" height="5.4" rx="3" fill="url(#b)"><title>14/9: 1</title></rect><text x="282.5" y="268.6" text-anchor="middle" class="v">1</text><rect x="303.9" y="199.0" width="19.2" height="81.0" rx="3" fill="url(#b)"><title>15/9: 15</title></rect><text x="313.5" y="193.0" text-anchor="middle" class="v">15</text><rect x="334.9" y="215.2" width="19.2" height="64.8" rx="3" fill="url(#b)"><title>16/9: 12</title></rect><text x="344.5" y="209.2" text-anchor="middle" class="v">12</text><rect x="365.9" y="215.2" width="19.2" height="64.8" rx="3" fill="url(#b)"><title>17/9: 12</title></rect><text x="375.5" y="209.2" text-anchor="middle" class="v">12</text><rect x="396.9" y="274.6" width="19.2" height="5.4" rx="3" fill="url(#b)"><title>18/9: 1</title></rect><text x="406.5" y="268.6" text-anchor="middle" class="v">1</text><rect x="427.9" y="226.0" width="19.2" height="54.0" rx="3" fill="url(#b)"><title>19/9: 10</title></rect><text x="437.5" y="220.0" text-anchor="middle" class="v">10</text><rect x="458.9" y="278" width="19.2" height="2" rx="1" fill="#30363d"><title>20/9: 0</title></rect><rect x="489.9" y="182.8" width="19.2" height="97.2" rx="3" fill="url(#b)"><title>21/9: 18</title></rect><text x="499.5" y="176.8" text-anchor="middle" class="v">18</text><rect x="520.9" y="220.6" width="19.2" height="59.4" rx="3" fill="url(#b)"><title>22/9: 11</title></rect><text x="530.5" y="214.6" text-anchor="middle" class="v">11</text><rect x="551.9" y="220.6" width="19.2" height="59.4" rx="3" fill="url(#b)"><title>23/9: 11</title></rect><text x="561.5" y="214.6" text-anchor="middle" class="v">11</text><rect x="582.9" y="69.4" width="19.2" height="210.6" rx="3" fill="url(#b)"><title>24/9: 39</title></rect><text x="592.5" y="63.4" text-anchor="middle" class="v">39</text><rect x="613.9" y="112.6" width="19.2" height="167.4" rx="3" fill="url(#b)"><title>25/9: 31</title></rect><text x="623.5" y="106.6" text-anchor="middle" class="v">31</text><rect x="644.9" y="258.4" width="19.2" height="21.6" rx="3" fill="url(#b)"><title>26/9: 4</title></rect><text x="654.5" y="252.4" text-anchor="middle" class="v">4</text><rect x="675.9" y="278" width="19.2" height="2" rx="1" fill="#30363d"><title>27/9: 0</title></rect><rect x="706.9" y="236.8" width="19.2" height="43.2" rx="3" fill="url(#b)"><title>28/9: 8</title></rect><text x="716.5" y="230.8" text-anchor="middle" class="v">8</text><rect x="737.9" y="215.2" width="19.2" height="64.8" rx="3" fill="url(#b)"><title>29/9: 12</title></rect><text x="747.5" y="209.2" text-anchor="middle" class="v">12</text><rect x="768.9" y="177.4" width="19.2" height="102.6" rx="3" fill="url(#b)"><title>30/9: 19</title></rect><text x="778.5" y="171.4" text-anchor="middle" class="v">19</text><rect x="799.9" y="199.0" width="19.2" height="81.0" rx="3" fill="url(#b)"><title>1/10: 15</title></rect><text x="809.5" y="193.0" text-anchor="middle" class="v">15</text><rect x="830.9" y="226.0" width="19.2" height="54.0" rx="3" fill="url(#b)"><title>2/10: 10</title></rect><text x="840.5" y="220.0" text-anchor="middle" class="v">10</text><rect x="861.9" y="274.6" width="19.2" height="5.4" rx="3" fill="url(#b)"><title>3/10: 1</title></rect><text x="871.5" y="268.6" text-anchor="middle" class="v">1</text><rect x="892.9" y="278" width="19.2" height="2" rx="1" fill="#30363d"><title>4/10: 0</title></rect><rect x="923.9" y="274.6" width="19.2" height="5.4" rx="3" fill="url(#b)"><title>5/10: 1</title></rect><text x="933.5" y="268.6" text-anchor="middle" class="v">1</text><rect x="954.9" y="231.4" width="19.2" height="48.6" rx="3" fill="url(#b)"><title>6/10: 9</title></rect><text x="964.5" y="225.4" text-anchor="middle" class="v">9</text><text x="65.5" y="300" text-anchor="middle" class="x">7/9</text><text x="96.5" y="300" text-anchor="middle" class="x">8/9</text><text x="127.5" y="300" text-anchor="middle" class="x">9/9</text><text x="158.5" y="300" text-anchor="middle" class="x">10/9</text><text x="189.5" y="300" text-anchor="middle" class="x">11/9</text><text x="220.5" y="300" text-anchor="middle" class="x">12/9</text><text x="251.5" y="300" text-anchor="middle" class="x">13/9</text><text x="282.5" y="300" text-anchor="middle" class="x">14/9</text><text x="313.5" y="300" text-anchor="middle" class="x">15/9</text><text x="344.5" y="300" text-anchor="middle" class="x">16/9</text><text x="375.5" y="300" text-anchor="middle" class="x">17/9</text><text x="406.5" y="300" text-anchor="middle" class="x">18/9</text><text x="437.5" y="300" text-anchor="middle" class="x">19/9</text><text x="468.5" y="300" text-anchor="middle" class="x">20/9</text><text x="499.5" y="300" text-anchor="middle" class="x">21/9</text><text x="530.5" y="300" text-anchor="middle" class="x">22/9</text><text x="561.5" y="300" text-anchor="middle" class="x">23/9</text><text x="592.5" y="300" text-anchor="middle" class="x">24/9</text><text x="623.5" y="300" text-anchor="middle" class="x">25/9</text><text x="654.5" y="300" text-anchor="middle" class="x">26/9</text><text x="685.5" y="300" text-anchor="middle" class="x">27/9</text><text x="716.5" y="300" text-anchor="middle" class="x">28/9</text><text x="747.5" y="300" text-anchor="middle" class="x">29/9</text><text x="778.5" y="300" text-anchor="middle" class="x">30/9</text><text x="809.5" y="300" text-anchor="middle" class="x">1/10</text><text x="840.5" y="300" text-anchor="middle" class="x">2/10</text><text x="871.5" y="300" text-anchor="middle" class="x">3/10</text><text x="902.5" y="300" text-anchor="middle" class="x">4/10</text><text x="933.5" y="300" text-anchor="middle" class="x">5/10</text><text x="964.5" y="300" text-anchor="middle" class="x">6/10</text></g></svg>