<svg xmlns="http://www.w3.org/2000/svg" viewBox="0 0 1000 320" width="1000" height="320"><defs><linearGradient id="b" x1="0" y1="0" x2="0" y2="1"><stop offset="0" stop-color="#58a6ff"/><stop offset="1" stop-color="#1f6feb"/></linearGradient></defs><style>.t{fill:#8b949e;font-size:12px}.x{fill:#8b949e;font-size:10px}.v{fill:#c9d1d9;font-size:10px;font-weight:600}</style><rect width="100%" height="100%" rx="8" fill="#0d1117" stroke="#30363d"/><g font-family="-apple-system,Segoe UI,Helvetica,Arial,sans-serif"><text x="50" y="32" fill="#c9d1d9" font-size="16" font-weight="600">Daily contributions · last 30 days</text><text x="980" y="32" text-anchor="end" class="t">110 contributions  ·  14/30 active days  ·  peak 21/day</text><line x1="50" x2="980" y1="280.0" y2="280.0" stroke="#30363d" stroke-dasharray="3 4"/><text x="40" y="284.0" text-anchor="end" class="t">0</text><line x1="50" x2="980" y1="236.8" y2="236.8" stroke="#30363d" stroke-dasharray="3 4"/><text x="40" y="240.8" text-anchor="end" class="t">5</text><line x1="50" x2="980" y1="193.6" y2="193.6" stroke="#30363d" stroke-dasharray="3 4"/><text x="40" y="197.6" text-anchor="end" class="t">10</text><line x1="50" x2="980" y1="150.4" y2="150.4" stroke="#30363d" stroke-dasharray="3 4"/><text x="40" y="154.4" text-anchor="end" class="t">15</text><line x1="50" x2="980" y1="107.2" y2="107.2" stroke="#30363d" stroke-dasharray="3 4"/><text x="40" y="111.2" text-anchor="end" class="t">20</text><line x1="50" x2="980" y1="64.0" y2="64.0" stroke="#30363d" stroke-dasharray="3 4"/><text x="40" y="68.0" text-anchor="end" class="t">25</text><rect x="55.9" y="228.2" width="19.2" height="51.8" rx="3" fill="url(#b)"><title>25/8: 6</title></rect><text x="65.5" y="222.2" text-anchor="middle" class="v">6</text><rect x="86.9" y="141.8" width="19.2" height="138.2" rx="3" fill="url(#b)"><title>26/8: 16</title></rect><text x="96.5" y="135.8" text-anchor="middle" class="v">16</text><rect x="117.9" y="228.2" width="19.2" height="51.8" rx="3" fill="url(#b)"><title>27/8: 6</title></rect><text x="127.5" y="222.2" text-anchor="middle" class="v">6</text><rect x="148.9" y="236.8" width="19.2" height="43.2" rx="3" fill="url(#b)"><title>28/8: 5</title></rect><text x="158.5" y="230.8" text-anchor="middle" class="v">5</text><rect x="179.9" y="254.1" width="19.2" height="25.9" rx="3" fill="url(#b)"><title>29/8: 3</title></rect><text x="189.5" y="248.1" text-anchor="middle" class="v">3</text><rect x="210.9" y="150.4" width="19.2" height="129.6" rx="3" fill="url(#b)"><title>30/8: 15</title></rect><text x="220.5" y="144.4" text-anchor="middle" class="v">15</text><rect x="241.9" y="98.6" width="19.2" height="181.4" rx="3" fill="url(#b)"><title>31/8: 21</title></rect><text x="251.5" y="92.6" text-anchor="middle" class="v">21</text><rect x="272.9" y="254.1" width="19.2" height="25.9" rx="3" fill="url(#b)"><title>1/9: 3</title></rect><text x="282.5" y="248.1" text-anchor="middle" class="v">3</text><rect x="303.9" y="278" width="19.2" height="2" rx="1" fill="#30363d"><title>2/9: 0</title></rect><rect x="334.9" y="262.7" width="19.2" height="17.3" rx="3" fill="url(#b)"><title>3/9: 2</title></rect><text x="344.5" y="256.7" text-anchor="middle" class="v">2</text><rect x="365.9" y="278" width="19.2" height="2" rx="1" fill="#30363d"><title>4/9: 0</title></rect><rect x="396.9" y="278" width="19.2" height="2" rx="1" fill="#30363d"><title>5/9: 0</title></rect><rect x="427.9" y="278" width="19.2" height="2" rx="1" fill="#30363d"><title>6/9: 0</title></rect><rect x="458.9" y="278" width="19.2" height="2" rx="1" fill="#30363d"><title>7/9: 0</title></rect><rect x="489.9" y="176.3" width="19.2" height="103.7" rx="3" fill="url(#b)"><title>8/9: 12</title></rect><text x="499.5" y="170.3" text-anchor="middle" class="v">12</text><rect x="520.9" y="278" width="19.2" height="2" rx="1" fill="#30363d"><title>9/9: 0</title></rect><rect x="551.9" y="278" width="19.2" height="2" rx="1" fill="#30363d"><title>10/9: 0</title></rect><rect x="582.9" y="262.7" width="19.2" height="17.3" rx="3" fill="url(#b)"><title>11/9: 2</title></rect><text x="592.5" y="256.7" text-anchor="middle" class="v">2</text><rect x="613.9" y="278" width="19.2" height="2" rx="1" fill="#30363d"><title>12/9: 0</title></rect><rect x="644.9" y="278" width="19.2" height="2" rx="1" fill="#30363d"><title>13/9: 0</title></rect><rect x="675.9" y="278" width="19.2" height="2" rx="1" fill="#30363d"><title>14/9: 0</title></rect><rect x="706.9" y="278" width="19.2" height="2" rx="1" fill="#30363d"><title>15/9: 0</title></rect><rect x="737.9" y="278" width="19.2" height="2" rx="1" fill="#30363d"><title>16/9: 0</title></rect><rect x="768.9" y="278" width="19.2" height="2" rx="1" fill="#30363d"><title>17/9: 0</title></rect><rect x="799.9" y="278" width="19.2" height="2" rx="1" fill="#30363d"><title>18/9: 0</title></rect><rect x="830.9" y="278" width="19.2" height="2" rx="1" fill="#30363d"><title>19/9: 0</title></rect><rect x="861.9" y="278" width="19.2" height="2" rx="1" fill="#30363d"><title>20/9: 0</title></rect><rect x="892.9" y="202.2" width="19.2" height="77.8" rx="3" fill="url(#b)"><title>21/9: 9</title></rect><text x="902.5" y="196.2" text-anchor="middle" class="v">9</text><rect x="923.9" y="210.9" width="19.2" height="69.1" rx="3" fill="url(#b)"><title>22/9: 8</title></rect><text x="933.5" y="204.9" text-anchor="middle" class="v">8</text><rect x="954.9" y="262.7" width="19.2" height="17.3" rx="3" fill="url(#b)"><title>23/9: 2</title></rect><text x="964.5" y="256.7" text-anchor="middle" class="v">2</text><text x="65.5" y="300" text-anchor="middle" class="x">25/8</text><text x="96.5" y="300" text-anchor="middle" class="x">26/8</text><text x="127.5" y="300" text-anchor="middle" class="x">27/8</text><text x="158.5" y="300" text-anchor="middle" class="x">28/8</text><text x="189.5" y="300" text-anchor="middle" class="x">29/8</text><text x="220.5" y="300" text-anchor="middle" class="x">30/8</text><text x="251.5" y="300" text-anchor="middle" class="x">31/8</text><text x="282.5" y="300" text-anchor="middle" class="x">1/9</text><text x="313.5" y="300" text-anchor="middle" class="x">2/9</text><text x="344.5" y="300" text-anchor="middle" class="x">3/9</text><text x="375.5" y="300" text-anchor="middle" class="x">4/9</text><text x="406.5" y="300" text-anchor="middle" class="x">5/9</text><text x="437.5" y="300" text-anchor="middle" class="x">6/9</text><text x="468.5" y="300" text-anchor="middle" class="x">7/9</text><text x="499.5" y="300" text-anchor="middle" class="x">8/9</text><text x="530.5" y="300" text-anchor="middle" class="x">9/9</text><text x="561.5" y="300" text-anchor="middle" class="x">10/9</text><text x="592.5" y="300" text-anchor="middle" class="x">11/9</text><text x="623.5" y="300" text-anchor="middle" class="x">12/9</text><text x="654.5" y="300" text-anchor="middle" class="x">13/9</text><text x="685.5" y="300" text-anchor="middle" class="x">14/9</text><text x="716.5" y="300" text-anchor="middle" class="x">15/9</text><text x="747.5" y="300" text-anchor="middle" class="x">16/9</text><text x="778.5" y="300" text-anchor="middle" class="x">17/9</text><text x="809.5" y="300" text-anchor="middle" class="x">18/9</text><text x="840.5" y="300" text-anchor="middle" class="x">19/9</text><text x="871.5" y="300" text-anchor="middle" class="x">20/9</text><text x="902.5" y="300" text-anchor="middle" class="x">21/9</text><text x="933.5" y="300" text-anchor="middle" class="x">22/9</text><text x="964.5" y="300" text-anchor="middle" class="x">23/9</text></g></svg>